<svg width="811" height="811" xmlns="http://www.w3.org/2000/svg" xmlns:xlink="http://www.w3.org/1999/xlink" overflow="hidden"><defs><clipPath id="clip0"><rect x="214" y="307" width="811" height="811"/></clipPath></defs><g clip-path="url(#clip0)" transform="translate(-214 -307)"><path d="M215 712.5C215 489.101 396.101 308 619.5 308 842.899 308 1024 489.101 1024 712.5 1024 935.899 842.899 1117 619.5 1117 396.101 1117 215 935.899 215 712.5Z" fill="#262626" fill-rule="evenodd"/><path d="M303 712.5C303 537.702 444.702 396 619.5 396 794.298 396 936 537.702 936 712.5 936 887.298 794.298 1029 619.5 1029 444.702 1029 303 887.298 303 712.5Z" fill="#6200EE" fill-rule="evenodd"/><path d="M528.45 710.556C550.291 710.267 572.804 712.477 596.143 717.761 642.797 827.652 572.973 968.934 526.692 1092.66L522.479 1105.01 499.336 1099.06C372.632 1059.63 272.626 959.595 233.216 832.848L232.439 829.828 288.657 797.044C364.457 752.84 441.084 711.712 528.45 710.556Z" fill="#262626" fill-rule="evenodd"/><path d="M642.42 308.857 661.035 309.797C783.46 322.234 889.752 389.265 955.196 486.168L972.227 517.556 937.391 549.441C856.481 623.498 773.292 693.131 653.65 692.005 584.795 594.478 623.136 441.618 642.183 310.898L642.42 308.857Z" fill="#262626" fill-rule="evenodd"/></g></svg>