<svg width="811" height="811" xmlns="http://www.w3.org/2000/svg" xmlns:xlink="http://www.w3.org/1999/xlink" overflow="hidden"><defs><clipPath id="clip0"><rect x="260" y="315" width="811" height="811"/></clipPath></defs><g clip-path="url(#clip0)" transform="translate(-260 -315)"><path d="M261 720C261 496.325 442.101 315 665.5 315 888.899 315 1070 496.325 1070 720 1070 943.675 888.899 1125 665.5 1125 442.101 1125 261 943.675 261 720Z" fill="#FFFFFF" fill-rule="evenodd"/><path d="M349 720C349 545.478 490.702 404 665.5 404 840.298 404 982 545.478 982 720 982 894.522 840.298 1036 665.5 1036 490.702 1036 349 894.522 349 720Z" fill="#6200EE" fill-rule="evenodd"/><path d="M574.258 718.075C596.1 717.786 618.614 719.996 641.954 725.28 688.609 835.175 618.783 976.462 572.5 1100.19L568.287 1112.54 545.144 1106.59C418.435 1067.17 318.425 967.122 279.015 840.371L278.238 837.35 334.457 804.565C410.26 760.36 486.89 719.231 574.258 718.075Z" fill="#FFFFFF" fill-rule="evenodd"/><path d="M688.232 316.362 706.848 317.302C829.278 329.74 935.573 396.773 1001.02 493.679L1018.05 525.068 983.214 556.955C902.301 631.014 819.109 700.65 699.463 699.524 630.606 601.993 668.948 449.128 687.996 318.403L688.232 316.362Z" fill="#FFFFFF" fill-rule="evenodd"/></g></svg>